<?xml version="1.0" encoding="UTF-8"?>
<svg width="40px" height="40px" viewBox="0 0 40 40" version="1.1" xmlns="http://www.w3.org/2000/svg" xmlns:xlink="http://www.w3.org/1999/xlink">
    <title>Auto_Circle_Icon_sm</title>
    <defs>
        <path d="M18.4896833,12.3262389 C17.6389056,12.3262389 16.9491833,11.6357944 16.9491833,10.7857389 C16.9491833,9.93568333 17.6396278,9.24523889 18.4896833,9.24523889 C19.3397389,9.24523889 20.0301833,9.93568333 20.0301833,10.7857389 C20.0301833,11.6357944 19.3397389,12.3262389 18.4896833,12.3262389 L18.4896833,12.3262389 Z M5.39362778,6.93340556 L5.39362778,4.62229444 C5.39362778,3.34829444 6.43073889,2.31118333 7.70473889,2.31118333 L15.4086833,2.31118333 C16.6826833,2.31118333 17.7197944,3.34829444 17.7197944,4.62229444 L17.7197944,6.93340556 L5.39362778,6.93340556 Z M7.70401667,11.5556278 L15.4079611,11.5556278 L15.4079611,10.7850167 L7.70401667,10.7850167 L7.70401667,11.5556278 Z M7.70401667,13.0961278 L15.4079611,13.0961278 L15.4079611,12.3255167 L7.70401667,12.3255167 L7.70401667,13.0961278 Z M7.70401667,14.63735 L15.4079611,14.63735 L15.4079611,13.8667389 L7.70401667,13.8667389 L7.70401667,14.63735 Z M4.62301667,12.3262389 C3.77223889,12.3262389 3.08251667,11.6357944 3.08251667,10.7857389 C3.08251667,9.93568333 3.77296111,9.24523889 4.62301667,9.24523889 C5.47307222,9.24523889 6.16351667,9.93568333 6.16351667,10.7857389 C6.16351667,11.6357944 5.47307222,12.3262389 4.62301667,12.3262389 L4.62301667,12.3262389 Z M21.95635,6.93340556 L20.0301833,6.93340556 L20.0301833,4.62229444 C20.0301833,2.06996111 17.9602944,7.22222222e-05 15.4079611,7.22222222e-05 L7.70401667,7.22222222e-05 C5.15168333,7.22222222e-05 3.08179444,2.06996111 3.08179444,4.62229444 L3.08179444,6.93340556 L1.15562778,6.93340556 C0.517905556,6.93340556 7.2222223e-05,7.45051667 7.2222223e-05,8.08896111 L7.2222223e-05,9.24451667 L1.54057222,9.24451667 L1.54057222,18.4889611 L6.16279444,18.4889611 L6.16279444,17.71835 C6.16207222,16.8675722 6.85323889,16.17785 7.70329444,16.17785 L15.4072389,16.17785 C16.2580167,16.17785 16.9484611,16.8682944 16.9477389,17.71835 L16.9477389,18.4889611 L21.5699611,18.4889611 L21.5699611,9.24451667 L23.1104611,9.24451667 L23.1104611,8.08896111 C23.1104611,7.45051667 22.5926278,6.93340556 21.9549056,6.93340556 L21.95635,6.93340556 Z" id="path-1"></path>
    </defs>
    <g id="EDGE---Current-Customers" stroke="none" stroke-width="1" fill="none" fill-rule="evenodd">
        <g id="DriveEasy---Learn-More---EDGE" transform="translate(-28.000000, -771.000000)">
            <g id="Auto_Circle_Icon_sm" transform="translate(28.000000, 771.000000)">
                <circle id="Oval-Copy-2" fill="#3F7ED0" cx="20" cy="20" r="20"></circle>
                <g id="Group" transform="translate(7.000000, 7.000000)">
                    <g id="Icons-/-Vehicle" transform="translate(1.444444, 3.611111)">
                        <mask id="mask-2" fill="white">
                            <use xlink:href="#path-1"></use>
                        </mask>
                        <use id="Mask" fill="#154995" xlink:href="#path-1"></use>
                        <g id="Group" mask="url(#mask-2)">
                            <g transform="translate(-1.444444, -3.611111)" id="Color" fill="#FFFFFF">
                                <rect id="Rectangle" x="0" y="0" width="26" height="26"></rect>
                            </g>
                        </g>
                    </g>
                </g>
            </g>
        </g>
    </g>
</svg>