<?xml version="1.0" encoding="UTF-8"?>
<svg width="54px" height="54px" viewBox="0 0 54 54" version="1.1" xmlns="http://www.w3.org/2000/svg" xmlns:xlink="http://www.w3.org/1999/xlink">
    <title>DriveEasy_Card_Icon@1x</title>
    <defs>
        <path d="M18.1184211,0 C8.12792368,0 0,8.12792368 0,18.1184211 C0,28.1089184 8.12792368,36.2368421 18.1184211,36.2368421 C28.1089184,36.2368421 36.2368421,28.1089184 36.2368421,18.1184211 C36.2368421,8.12792368 28.1089184,0 18.1184211,0 Z M17.6872338,3.45112782 C24.4288513,3.45112782 30.129975,7.8309959 31.9229323,13.8045113 C26.8936075,12.5508105 22.2166816,11.9383546 17.6872338,11.9383546 C13.1577859,11.9383546 8.48126748,12.5504162 3.45112782,13.8041169 C5.24449259,7.8309959 10.9456163,3.45112782 17.6872338,3.45112782 Z M3.45112782,20.7067669 C9.26592861,20.7710281 13.8045113,25.5475076 13.8045113,31.6363515 C13.8045113,31.7273549 13.8025436,31.8223497 13.7993954,31.9229323 C8.56741268,30.5020025 4.5085432,26.1454157 3.45112782,20.7067669 Z M31.9229323,20.7067669 C30.8662638,26.1454157 26.806453,30.5020025 21.574665,31.9229323 C21.5711231,31.8227488 21.5695489,31.7269558 21.5695489,31.6363515 C21.5695489,25.5475076 26.107517,20.7710281 31.9229323,20.7067669 Z M19.5717135,13.8045113 C22.7960614,13.8045113 23.2437819,14.970826 23.2437819,16.7793765 L23.2437819,17.0747666 L20.4538463,17.0747666 C20.4538463,16.1514336 19.9291298,16.0361366 19.021331,16.0361366 L15.937668,16.0361366 C14.5042019,16.0361366 14.1334779,16.3820288 14.1334779,17.9723718 L14.1334779,19.1262994 C14.1334779,20.7175946 14.5042019,21.0634875 15.937668,21.0634875 L18.97,21.0634875 C19.7123986,21.0634875 20.4538463,20.9481899 20.4538463,20.0505846 L20.4538463,19.7809216 L16.922463,19.7809216 L16.922463,17.8570742 L23.2951128,17.8570742 L23.2951128,20.4993872 C23.2951128,23.1664752 21.9129781,23.2951128 18.7142955,23.2951128 L15.2979314,23.2951128 C12.7389854,23.2951128 11.2161654,22.6538299 11.2161654,19.935287 L11.2161654,17.1643364 C11.2161654,14.4457935 12.7389854,13.8045113 15.2979314,13.8045113 L19.5717135,13.8045113 Z" id="path-1"></path>
    </defs>
    <g id="EDGE---Current-Customers" stroke="none" stroke-width="1" fill="none" fill-rule="evenodd">
        <g id="Dashoard---DriveEasy---PFU" transform="translate(-31.000000, -939.000000)">
            <g id="DriveEasy_Card_Icon" transform="translate(31.000000, 939.000000)">
                <circle id="Oval" fill="#154995" cx="27" cy="27" r="27"></circle>
                <g id="Colours-/-Geico-Blue-/-Fill" transform="translate(9.236842, 9.236842)">
                    <mask id="mask-2" fill="white">
                        <use xlink:href="#path-1"></use>
                    </mask>
                    <use id="Mask" fill="#000000" fill-rule="nonzero" xlink:href="#path-1"></use>
                    <g id="Group" mask="url(#mask-2)" fill="#FFFFFF">
                        <g id="Colours-/-Geico-Blue-/-Fill">
                            <rect id="Rectangle" x="0" y="0" width="36.2368421" height="36.2368421"></rect>
                        </g>
                    </g>
                </g>
            </g>
        </g>
    </g>
</svg>