<?xml version="1.0" encoding="UTF-8"?>
<svg width="54px" height="54px" viewBox="0 0 54 54" version="1.1" xmlns="http://www.w3.org/2000/svg" xmlns:xlink="http://www.w3.org/1999/xlink">
    <title>Homeowners_Card_Icon</title>
    <defs>
        <circle id="path-1" cx="27" cy="27" r="27"></circle>
        <path d="M23.467,4.45 L23.467,0 C23.467,0 25.25,0 26.134,0 C27.018,0 27.734,0.717 27.734,1.6 L27.734,8.717 L23.467,4.45 L23.467,4.45 Z M31.375,15.376 L16,0 L0.625,15.376 C-0.208,16.209 -0.208,17.562 0.626,18.393 C1.459,19.227 2.134,19.901 2.134,19.901 L16,6.034 L29.866,19.901 C29.866,19.901 30.541,19.227 31.374,18.393 C32.208,17.561 32.208,16.21 31.375,15.376 Z M16,9.051 L4.267,20.785 L4.267,32 L11.734,32 L11.734,23.467 C11.734,22.289 12.689,21.334 13.867,21.334 L18.134,21.334 C19.312,21.334 20.267,22.29 20.267,23.467 L20.267,32 L27.734,32 L27.734,20.785 L16.001,9.051 L16,9.051 Z" id="path-3"></path>
    </defs>
    <g id="EDGE---Current-Customers" stroke="none" stroke-width="1" fill="none" fill-rule="evenodd">
        <g id="Dashoard---DriveEasy---PFU" transform="translate(-33.000000, -1195.000000)">
            <g id="Homeowners_Card_Icon" transform="translate(33.000000, 1195.000000)">
                <mask id="mask-2" fill="white">
                    <use xlink:href="#path-1"></use>
                </mask>
                <use id="Mask" fill="#D8D8D8" xlink:href="#path-1"></use>
                <g id="Group" mask="url(#mask-2)" fill="#154995">
                    <g id="Colors-/-Gecko-/-Gradient">
                        <rect id="Rectangle" x="0" y="0" width="54" height="54"></rect>
                    </g>
                </g>
                <g id="Group" mask="url(#mask-2)">
                    <g transform="translate(11.000000, 11.000000)" id="Icons-/-Home-Owner-Ins">
                        <mask id="mask-4" fill="white">
                            <use xlink:href="#path-3"></use>
                        </mask>
                        <use id="Mask" fill="#154995" fill-rule="nonzero" xlink:href="#path-3"></use>
                        <g id="Group" mask="url(#mask-4)" fill="#FFFFFF">
                            <g id="Colours-/-Geico-Blue-/-Fill">
                                <rect id="Rectangle" x="0" y="0" width="32" height="32"></rect>
                            </g>
                        </g>
                    </g>
                </g>
            </g>
        </g>
    </g>
</svg>