<?xml version="1.0" encoding="UTF-8"?>
<svg width="40px" height="40px" viewBox="0 0 40 40" version="1.1" xmlns="http://www.w3.org/2000/svg" xmlns:xlink="http://www.w3.org/1999/xlink">
    <title>Smartphone_Circle_Icon</title>
    <defs>
        <path d="M12.75,0 C14.3476809,0 15.6536609,1.24891996 15.7449073,2.82372721 L15.75,3 L15.75,21 C15.75,22.5976809 14.50108,23.9036609 12.9262728,23.9949073 L12.75,24 L3,24 C1.40231912,24 0.0963391206,22.75108 0.00509269341,21.1762728 L0,21 L0,3 C0,1.40231912 1.24891996,0.0963391206 2.82372721,0.00509269341 L3,0 L12.75,0 Z M12.75,1.5 L3,1.5 C2.22030388,1.5 1.57955132,2.09488808 1.50686658,2.85553999 L1.5,3 L1.5,21 C1.5,21.7796961 2.09488808,22.4204487 2.85553999,22.4931334 L3,22.5 L12.75,22.5 C13.5296961,22.5 14.1704487,21.9051119 14.2431334,21.14446 L14.25,21 L14.25,3 C14.25,2.17157288 13.5784271,1.5 12.75,1.5 Z M5.20186047,3 L5.20186047,3.89134884 C5.20186047,4.40762791 5.62102326,4.8267907 6.1384186,4.8267907 L6.1384186,4.8267907 L9.49283721,4.8267907 C10.0102326,4.8267907 10.4293953,4.40762791 10.4293953,3.89134884 L10.4293953,3.89134884 L10.4293953,3 L11.7555349,3 C12.2506047,3 12.6513488,3.40130233 12.6513488,3.89581395 L12.6513488,3.89581395 L12.6513488,20.3360317 C12.6513488,20.8305433 12.2506047,21.2312875 11.7555349,21.2312875 L11.7555349,21.2312875 L3.89581395,21.2312875 C3.40130233,21.2312875 3,20.8305433 3,20.3360317 L3,20.3360317 L3,3.89581395 C3,3.40130233 3.40130233,3 3.89581395,3 L3.89581395,3 L5.20186047,3 Z M10.4312741,12.118019 C10.2234019,11.8871535 9.88743506,11.8507754 9.6808712,12.0367664 L9.6808712,12.0367664 L5.69135687,15.6289412 L5.64404094,15.6784544 C5.48640597,15.8705102 5.50317633,16.1720999 5.69372587,16.3837266 C5.9015981,16.6145921 6.23756494,16.6509701 6.4441288,16.4649792 L6.4441288,16.4649792 L10.4336431,12.8728043 L10.4809591,12.8232911 C10.638594,12.6312354 10.6218237,12.3296457 10.4312741,12.118019 Z M10.4312741,8.55464619 C10.2234019,8.32378069 9.88743506,8.28740268 9.6808712,8.47339362 L9.6808712,8.47339362 L5.69135687,12.0655685 L5.64404094,12.1150817 C5.48640597,12.3071374 5.50317633,12.6087271 5.69372587,12.8203538 C5.9015981,13.0512193 6.23756494,13.0875973 6.4441288,12.9016064 L6.4441288,12.9016064 L10.4336431,9.30943155 L10.4809591,9.25991832 C10.638594,9.06786262 10.6218237,8.7662729 10.4312741,8.55464619 Z" id="path-1"></path>
    </defs>
    <g id="EDGE---Current-Customers" stroke="none" stroke-width="1" fill="none" fill-rule="evenodd">
        <g id="DriveEasy---Learn-More---EDGE" transform="translate(-28.000000, -627.000000)">
            <g id="Smartphone_Circle_Icon" transform="translate(28.000000, 627.000000)">
                <circle id="Oval-Copy" fill="#3F7ED0" cx="20" cy="20" r="20"></circle>
                <g id="Group" transform="translate(8.000000, 8.000000)">
                    <g id="Icons-/-Smartphone" transform="translate(4.000000, 0.000000)">
                        <mask id="mask-2" fill="white">
                            <use xlink:href="#path-1"></use>
                        </mask>
                        <use id="Mask" fill="#000000" xlink:href="#path-1"></use>
                        <g id="Group" mask="url(#mask-2)">
                            <g transform="translate(-4.000000, 0.000000)" id="Color" fill="#FFFFFF">
                                <rect id="Rectangle" x="0" y="0" width="24" height="24"></rect>
                            </g>
                        </g>
                    </g>
                </g>
            </g>
        </g>
    </g>
</svg>