<?xml version="1.0" encoding="UTF-8"?>
<svg width="54px" height="54px" viewBox="0 0 54 54" version="1.1" xmlns="http://www.w3.org/2000/svg" xmlns:xlink="http://www.w3.org/1999/xlink">
    <title>Umbrella_Card_Icon</title>
    <defs>
        <circle id="path-1" cx="27" cy="27" r="27"></circle>
        <path d="M18.155,19.074 C17.995,18.946 17.829,18.741 17.681,18.684 C17.521,18.556 17.297,18.505 17.067,18.383 C16.843,18.332 16.613,18.21 16.389,18.159 C16.165,18.108 15.941,18.057 15.717,18.005 L15.691,15.535 C15.845,15.593 15.985,15.58 16.069,15.644 C16.223,15.702 16.293,15.695 16.447,15.753 C16.524,15.817 16.671,15.804 16.748,15.868 C16.818,15.862 16.902,15.926 16.972,15.919 C17.042,15.912 17.19,15.9 17.254,15.817 C17.318,15.74 17.382,15.657 17.44,15.51 L17.869,14.665 C17.632,14.473 17.325,14.281 16.941,14.102 C16.557,13.923 16.115,13.82 15.674,13.788 L15.687,12.406 L14.893,12.483 C14.746,12.496 14.611,12.585 14.547,12.662 C14.483,12.739 14.425,12.892 14.438,13.04 L14.444,13.84 C13.938,13.891 13.439,14.013 13.1,14.262 C12.684,14.448 12.422,14.768 12.159,15.081 C11.896,15.394 11.711,15.708 11.602,16.079 C11.493,16.457 11.455,16.821 11.493,17.18 C11.544,17.686 11.659,18.108 11.832,18.383 C12.005,18.658 12.248,18.927 12.555,19.113 C12.862,19.299 13.169,19.414 13.47,19.535 C13.771,19.656 14.142,19.689 14.443,19.804 L14.481,22.422 C14.257,22.371 14.103,22.313 13.956,22.256 C13.802,22.198 13.655,22.141 13.495,22.013 C13.341,21.955 13.194,21.898 13.111,21.834 C12.957,21.776 12.887,21.783 12.746,21.796 C12.676,21.802 12.528,21.815 12.464,21.898 C12.4,21.975 12.336,22.058 12.272,22.135 L11.715,23.133 C12.029,23.395 12.489,23.639 13.021,23.805 C13.553,23.971 13.994,24.074 14.576,24.087 L14.576,25.54 L15.37,25.463 C15.517,25.45 15.652,25.361 15.716,25.284 C15.78,25.207 15.838,25.054 15.825,24.906 L15.812,24.036 C16.311,23.914 16.804,23.793 17.143,23.543 C17.553,23.287 17.821,23.037 18.084,22.724 C18.347,22.411 18.526,22.026 18.634,21.649 C18.743,21.271 18.775,20.836 18.73,20.401 C18.704,20.113 18.672,19.825 18.583,19.614 C18.41,19.486 18.314,19.275 18.154,19.076 L18.155,19.074 Z M14.456,17.762 C14.155,17.647 13.925,17.525 13.765,17.391 C13.605,17.263 13.439,17.058 13.413,16.77 C13.4,16.623 13.394,16.552 13.451,16.405 C13.515,16.328 13.502,16.181 13.637,16.098 C13.701,16.021 13.842,15.932 13.976,15.848 C14.11,15.764 14.251,15.675 14.469,15.656 L14.456,17.762 L14.456,17.762 Z M15.768,20.027 C16.062,20.072 16.293,20.193 16.459,20.398 C16.619,20.526 16.709,20.737 16.741,21.025 C16.805,21.678 16.491,22.145 15.781,22.356 L15.768,20.027 Z M13.054,2.217 C13.073,2.229 13.086,2.242 13.105,2.255 C13.092,2.255 13.073,2.261 13.054,2.261 C13.029,2.261 13.003,2.255 12.984,2.255 L12.984,2.255 L12.984,2.281 C12.44,2.415 10.84,3.151 9.797,4.316 C8.39177419,5.87332258 8.50473985,5.64107284 8.28007314,6.21470864 L8.21258524,6.38434027 C8.13499792,6.57566597 8.02345161,6.83719355 7.845,7.215 C7.455,8.041 7.186,8.828 7.013,9.455 L7.013,9.455 L7.013,10.223 C7.013,10.658 6.635,11.036 6.2,11.036 L6.2,11.036 L0.869,11.036 C0.434,11.036 0.056,10.658 0.056,10.223 L0.056,10.223 L0.056,10.178 L0.056,10.178 L0.05,10.178 L0.018,9.378 C0.466,8.834 1.119,8.078 1.989,7.208 C3.832,5.365 4.376,4.821 6.706,3.573 L6.706,3.573 C9.035,2.326 13.048,2.217 13.054,2.217 Z M23.499,3.574 L23.499,3.573 C25.829,4.821 26.373,5.365 28.216,7.208 C29.086,8.078 29.739,8.834 30.187,9.378 L30.155,10.178 L30.149,10.178 L30.149,10.223 L30.149,10.223 C30.149,10.658 29.771,11.036 29.336,11.036 L24.011,11.036 C23.576,11.036 23.198,10.658 23.198,10.223 L23.198,9.455 L23.198,9.455 C23.025,8.828 22.756,8.041 22.366,7.215 C22.1875484,6.83719355 22.0760021,6.57566597 21.9984148,6.38434027 L21.9309269,6.21470864 C21.7062601,5.64107284 21.8192258,5.87332258 20.414,4.316 C19.364,3.151 17.764,2.415 17.227,2.281 L17.227,2.255 C17.208,2.255 17.182,2.261 17.157,2.261 C17.138,2.261 17.119,2.255 17.106,2.255 C17.125,2.242 17.138,2.229 17.157,2.217 C17.157,2.217 21.17,2.326 23.499,3.574 Z M15.205,0.52 L15.813,1.73 L15.813,2.498 C16.529,2.831 17.605,3.484 18.443,4.322 C20.017,5.89 19.473,5.269 20.395,7.221 C20.772,8.015 21.041,8.789 21.214,9.41 L21.214,9.41 L21.215,9.403 L21.241,9.403 L21.241,9.403 L21.241,10.216 C21.241,10.651 20.863,11.029 20.428,11.029 L20.428,11.029 L9.791,11.029 C9.356,11.029 8.978,10.651 8.978,10.216 L8.978,10.216 L8.978,9.403 L8.997,9.403 C9.17,8.788 9.438,8.014 9.816,7.214 C10.5733571,5.61632143 10.3415383,5.74936352 11.1069923,4.97542798 L11.4618265,4.62043841 C11.553949,4.52866327 11.6555714,4.42742857 11.768,4.315 C12.639,3.445 13.855,2.767 14.61,2.453 L14.61,2.453 L14.61,1.723 L15.205,0.52 Z" id="path-3"></path>
    </defs>
    <g id="EDGE---Current-Customers" stroke="none" stroke-width="1" fill="none" fill-rule="evenodd">
        <g id="Dashoard---DriveEasy---PFU" transform="translate(-31.000000, -1067.000000)">
            <g id="Umbrella_Card_Icon" transform="translate(31.000000, 1067.000000)">
                <mask id="mask-2" fill="white">
                    <use xlink:href="#path-1"></use>
                </mask>
                <use id="Mask" fill="#D8D8D8" xlink:href="#path-1"></use>
                <g id="Group" mask="url(#mask-2)" fill="#154995">
                    <g id="Colors-/-Gecko-/-Gradient">
                        <rect id="Rectangle" x="0" y="0" width="54" height="54"></rect>
                    </g>
                </g>
                <g id="Group" mask="url(#mask-2)">
                    <g transform="translate(12.000000, 13.000000)" id="Icons-/-Umbrella-Ins">
                        <mask id="mask-4" fill="white">
                            <use xlink:href="#path-3"></use>
                        </mask>
                        <use id="Mask" fill="#154995" fill-rule="nonzero" xlink:href="#path-3"></use>
                        <g id="Group" mask="url(#mask-4)" fill="#FFFFFF">
                            <g id="Colours-/-Geico-Blue-/-Fill">
                                <rect id="Rectangle" x="0" y="0" width="31" height="26"></rect>
                            </g>
                        </g>
                    </g>
                </g>
            </g>
        </g>
    </g>
</svg>